<?xml version="1.0" standalone="no"?>
<!DOCTYPE svg PUBLIC "-//W3C//DTD SVG 20010904//EN"
 "http://www.w3.org/TR/2001/REC-SVG-20010904/DTD/svg10.dtd">
<svg version="1.0" xmlns="http://www.w3.org/2000/svg"
 width="70.000000pt" height="70.000000pt" viewBox="0 0 70.000000 70.000000"
 preserveAspectRatio="xMidYMid meet">
<metadata>
Created by potrace 1.14, written by Peter Selinger 2001-2017
</metadata>
<g transform="translate(0.000000,70.000000) scale(0.100000,-0.100000)"
fill="#000000" stroke="none">
<path d="M249 685 c-92 -33 -162 -88 -195 -153 -10 -20 -21 -39 -24 -42 -11
-10 -26 -77 -29 -127 -5 -100 45 -214 121 -278 62 -53 135 -79 226 -82 45 -1
82 1 82 5 0 4 9 8 21 9 68 5 175 100 218 193 20 43 25 71 26 130 0 119 -22
177 -96 252 -69 70 -137 100 -234 103 -48 2 -94 -2 -116 -10z m161 -47 c0 -5
10 -8 23 -8 32 0 107 -49 144 -95 34 -40 33 -65 -2 -118 -20 -31 -40 -26 -43
10 -3 41 -49 111 -95 144 -23 17 -69 38 -102 47 -59 17 -59 17 -25 22 51 7
100 6 100 -2z m-155 -38 c4 -6 11 -8 16 -5 5 4 12 -1 15 -9 3 -9 13 -16 22
-16 23 0 2 -19 -29 -26 -13 -3 -28 -6 -34 -8 -18 -4 -90 -53 -105 -72 -26 -32
-62 -94 -55 -94 4 0 3 -6 -3 -12 -10 -13 -12 -19 -12 -38 0 -5 -4 -10 -8 -10
-21 0 -1 114 30 176 40 81 140 151 163 114z m139 -133 c23 -46 29 -69 29 -122
0 -36 -5 -71 -11 -77 -6 -7 -10 -15 -11 -18 0 -16 -17 -48 -34 -64 -20 -19
-20 -19 -35 0 -58 77 -72 195 -32 275 44 86 52 87 94 6z m247 -97 c-3 -3 -7
-28 -8 -57 -2 -63 -24 -112 -72 -162 -51 -54 -72 -63 -112 -49 -18 6 -40 18
-50 26 -17 14 -14 17 39 34 81 28 152 102 178 187 13 45 20 57 25 44 3 -10 4
-20 0 -23z m-475 -86 c1 -26 21 -72 39 -92 44 -49 81 -82 92 -82 6 0 18 -6 25
-13 7 -7 24 -13 38 -13 15 0 25 -5 25 -14 0 -25 -115 -11 -173 22 -56 31 -117
99 -117 131 0 15 2 27 5 27 3 0 14 14 24 31 19 32 40 34 42 3z"/>
</g>
</svg>
