<svg width="159" height="159" viewBox="0 0 159 159" fill="none" xmlns="http://www.w3.org/2000/svg">
<path d="M71.032 97.384C68.408 97.384 66.056 96.712 63.976 95.368C61.928 94.024 60.296 92.072 59.08 89.512C57.896 86.952 57.304 83.848 57.304 80.2C57.304 76.552 57.896 73.448 59.08 70.888C60.296 68.328 61.928 66.376 63.976 65.032C66.056 63.688 68.408 63.016 71.032 63.016C73.624 63.016 75.96 63.688 78.04 65.032C80.12 66.376 81.752 68.328 82.936 70.888C84.12 73.448 84.712 76.552 84.712 80.2C84.712 83.848 84.12 86.952 82.936 89.512C81.752 92.072 80.12 94.024 78.04 95.368C75.96 96.712 73.624 97.384 71.032 97.384ZM71.032 93.112C72.792 93.112 74.328 92.632 75.64 91.672C76.984 90.712 78.024 89.272 78.76 87.352C79.528 85.432 79.912 83.048 79.912 80.2C79.912 77.352 79.528 74.968 78.76 73.048C78.024 71.128 76.984 69.688 75.64 68.728C74.328 67.768 72.792 67.288 71.032 67.288C69.272 67.288 67.72 67.768 66.376 68.728C65.032 69.688 63.976 71.128 63.208 73.048C62.472 74.968 62.104 77.352 62.104 80.2C62.104 83.048 62.472 85.432 63.208 87.352C63.976 89.272 65.032 90.712 66.376 91.672C67.72 92.632 69.272 93.112 71.032 93.112ZM94.9836 97V65.32L97.0476 67.576H87.3996V63.4H99.7356V97H94.9836Z" fill="#ECEFF0"/>
<rect x="1" y="1" width="157" height="157" rx="78.5" stroke="#DCDCDC" stroke-width="2"/>
<mask id="path-3-inside-1_7_2584" fill="white">
<path d="M159 79.5C159 89.9401 156.944 100.278 152.948 109.923C148.953 119.569 143.097 128.333 135.715 135.715C128.333 143.097 119.569 148.953 109.923 152.948C100.278 156.944 89.9401 159 79.5 159V155.792C89.5188 155.792 99.4396 153.819 108.696 149.985C117.952 146.151 126.362 140.531 133.447 133.447C140.531 126.362 146.151 117.952 149.985 108.696C153.819 99.4396 155.792 89.5188 155.792 79.5H159Z"/>
</mask>
<path d="M159 79.5C159 89.9401 156.944 100.278 152.948 109.923C148.953 119.569 143.097 128.333 135.715 135.715C128.333 143.097 119.569 148.953 109.923 152.948C100.278 156.944 89.9401 159 79.5 159V155.792C89.5188 155.792 99.4396 153.819 108.696 149.985C117.952 146.151 126.362 140.531 133.447 133.447C140.531 126.362 146.151 117.952 149.985 108.696C153.819 99.4396 155.792 89.5188 155.792 79.5H159Z" fill="#ECEFF0" stroke="#ECEFF0" stroke-width="4" mask="url(#path-3-inside-1_7_2584)"/>
</svg>
