<svg width="40" height="40" viewBox="0 0 40 40" fill="none" xmlns="http://www.w3.org/2000/svg">
<g id="close">
<path id="Vector" d="M31.9126 30.5875C32.0047 30.6733 32.0785 30.7768 32.1298 30.8918C32.181 31.0068 32.2086 31.131 32.2108 31.2568C32.213 31.3827 32.1899 31.5078 32.1427 31.6245C32.0956 31.7412 32.0254 31.8473 31.9364 31.9363C31.8473 32.0253 31.7413 32.0955 31.6245 32.1426C31.5078 32.1898 31.3828 32.213 31.2569 32.2107C31.131 32.2085 31.0069 32.181 30.8919 32.1297C30.7769 32.0785 30.6734 32.0046 30.5876 31.9125L20.0001 21.3266L9.41255 31.9125C9.23483 32.0781 8.99978 32.1682 8.7569 32.164C8.51402 32.1597 8.28229 32.0613 8.11052 31.8895C7.93876 31.7178 7.84037 31.486 7.83608 31.2431C7.8318 31.0003 7.92195 30.7652 8.08755 30.5875L18.6735 20L8.08755 9.41249C7.92195 9.23477 7.8318 8.99971 7.83608 8.75684C7.84037 8.51396 7.93876 8.28223 8.11052 8.11046C8.28229 7.9387 8.51402 7.84031 8.7569 7.83602C8.99978 7.83174 9.23483 7.92189 9.41255 8.08749L20.0001 18.6734L30.5876 8.08749C30.7653 7.92189 31.0003 7.83174 31.2432 7.83602C31.4861 7.84031 31.7178 7.9387 31.8896 8.11046C32.0613 8.28223 32.1597 8.51396 32.164 8.75684C32.1683 8.99971 32.0782 9.23477 31.9126 9.41249L21.3266 20L31.9126 30.5875Z" fill="#ECEFF0"/>
</g>
</svg>
