<svg width="24" height="25" viewBox="0 0 24 25" fill="none" xmlns="http://www.w3.org/2000/svg">
<g id="mdi:folder-star">
<path id="Vector" d="M20 6.1488H12L10 4.1488H4C3.46957 4.1488 2.96086 4.35952 2.58579 4.73459C2.21071 5.10966 2 5.61837 2 6.1488V18.1488C2 18.6792 2.21071 19.1879 2.58579 19.563C2.96086 19.9381 3.46957 20.1488 4 20.1488H20C20.5304 20.1488 21.0391 19.9381 21.4142 19.563C21.7893 19.1879 22 18.6792 22 18.1488V8.1488C22 7.61837 21.7893 7.10966 21.4142 6.73459C21.0391 6.35952 20.5304 6.1488 20 6.1488ZM17.94 17.1488L15 15.4288L12.06 17.1488L12.84 13.8188L10.25 11.5788L13.66 11.2888L15 8.1488L16.34 11.2888L19.75 11.5788L17.16 13.8188L17.94 17.1488Z" fill="#DCDCDC"/>
</g>
</svg>
