<svg width="25" height="25" viewBox="0 0 25 25" fill="none" xmlns="http://www.w3.org/2000/svg">
<g id="mdi:truck">
<path id="Vector" d="M18.8 18.6488C18.4022 18.6488 18.0207 18.4908 17.7394 18.2095C17.4581 17.9282 17.3 17.5466 17.3 17.1488C17.3 16.751 17.4581 16.3694 17.7394 16.0881C18.0207 15.8068 18.4022 15.6488 18.8 15.6488C19.1979 15.6488 19.5794 15.8068 19.8607 16.0881C20.142 16.3694 20.3 16.751 20.3 17.1488C20.3 17.5466 20.142 17.9282 19.8607 18.2095C19.5794 18.4908 19.1979 18.6488 18.8 18.6488ZM20.3 9.6488L22.26 12.1488H17.8V9.6488M6.80005 18.6488C6.40222 18.6488 6.02069 18.4908 5.73939 18.2095C5.45808 17.9282 5.30005 17.5466 5.30005 17.1488C5.30005 16.751 5.45808 16.3694 5.73939 16.0881C6.02069 15.8068 6.40222 15.6488 6.80005 15.6488C7.19787 15.6488 7.5794 15.8068 7.86071 16.0881C8.14201 16.3694 8.30005 16.751 8.30005 17.1488C8.30005 17.5466 8.14201 17.9282 7.86071 18.2095C7.5794 18.4908 7.19787 18.6488 6.80005 18.6488ZM20.8 8.1488H17.8V4.1488H3.80005C2.69005 4.1488 1.80005 5.0388 1.80005 6.1488V17.1488H3.80005C3.80005 17.9445 4.11612 18.7075 4.67873 19.2701C5.24134 19.8327 6.0044 20.1488 6.80005 20.1488C7.5957 20.1488 8.35876 19.8327 8.92137 19.2701C9.48398 18.7075 9.80005 17.9445 9.80005 17.1488H15.8C15.8 17.9445 16.1161 18.7075 16.6787 19.2701C17.2413 19.8327 18.0044 20.1488 18.8 20.1488C19.5957 20.1488 20.3588 19.8327 20.9214 19.2701C21.484 18.7075 21.8 17.9445 21.8 17.1488H23.8V12.1488L20.8 8.1488Z" fill="#DCDCDC"/>
</g>
</svg>
