<svg width="25" height="25" viewBox="0 0 25 25" fill="none" xmlns="http://www.w3.org/2000/svg">
<g id="mdi:van-utility">
<path id="Vector" d="M3.19995 7.1488C2.08995 7.1488 1.19995 8.0388 1.19995 9.1488V17.1488H3.19995C3.19995 17.9445 3.51602 18.7075 4.07863 19.2701C4.64124 19.8327 5.4043 20.1488 6.19995 20.1488C6.9956 20.1488 7.75866 19.8327 8.32127 19.2701C8.88388 18.7075 9.19995 17.9445 9.19995 17.1488H15.2C15.2 17.9445 15.516 18.7075 16.0786 19.2701C16.6412 19.8327 17.4043 20.1488 18.2 20.1488C18.9956 20.1488 19.7587 19.8327 20.3213 19.2701C20.8839 18.7075 21.2 17.9445 21.2 17.1488H23.2V13.1488C23.2 12.0388 22.31 11.1488 21.2 11.1488L18.2 7.1488H3.19995ZM15.2 8.6488H17.7L19.66 11.1488H15.2V8.6488ZM6.19995 15.6488C6.59778 15.6488 6.97931 15.8068 7.26061 16.0881C7.54192 16.3694 7.69995 16.751 7.69995 17.1488C7.69995 17.5466 7.54192 17.9282 7.26061 18.2095C6.97931 18.4908 6.59778 18.6488 6.19995 18.6488C5.80213 18.6488 5.4206 18.4908 5.13929 18.2095C4.85799 17.9282 4.69995 17.5466 4.69995 17.1488C4.69995 16.751 4.85799 16.3694 5.13929 16.0881C5.4206 15.8068 5.80213 15.6488 6.19995 15.6488ZM18.2 15.6488C18.5978 15.6488 18.9793 15.8068 19.2606 16.0881C19.5419 16.3694 19.7 16.751 19.7 17.1488C19.7 17.5466 19.5419 17.9282 19.2606 18.2095C18.9793 18.4908 18.5978 18.6488 18.2 18.6488C17.8021 18.6488 17.4206 18.4908 17.1393 18.2095C16.858 17.9282 16.7 17.5466 16.7 17.1488C16.7 16.751 16.858 16.3694 17.1393 16.0881C17.4206 15.8068 17.8021 15.6488 18.2 15.6488Z" fill="#DCDCDC"/>
</g>
</svg>
