<svg width="25" height="25" viewBox="0 0 25 25" fill="none"
    xmlns="http://www.w3.org/2000/svg">
    <g id="mdi:car-pickup">
        <path id="Vector" d="M16.4 6.1488H10.9V10.1488H1.40002V15.1488H3.40002C3.40002 15.9445 3.71609 16.7075 4.2787 17.2701C4.84131 17.8327 5.60437 18.1488 6.40002 18.1488C7.19567 18.1488 7.95874 17.8327 8.52135 17.2701C9.08395 16.7075 9.40002 15.9445 9.40002 15.1488H15.4C15.4 15.9445 15.7161 16.7075 16.2787 17.2701C16.8413 17.8327 17.6044 18.1488 18.4 18.1488C19.1957 18.1488 19.9587 17.8327 20.5213 17.2701C21.084 16.7075 21.4 15.9445 21.4 15.1488H23.4V12.1488C23.4 11.0388 22.51 10.1488 21.4 10.1488H19.4L16.4 6.1488ZM12.4 7.6488H15.9L17.86 10.1488H12.4V7.6488ZM6.40002 13.6488C6.79785 13.6488 7.17938 13.8068 7.46068 14.0881C7.74199 14.3694 7.90002 14.751 7.90002 15.1488C7.90002 15.5466 7.74199 15.9282 7.46068 16.2095C7.17938 16.4908 6.79785 16.6488 6.40002 16.6488C6.0022 16.6488 5.62067 16.4908 5.33936 16.2095C5.05806 15.9282 4.90002 15.5466 4.90002 15.1488C4.90002 14.751 5.05806 14.3694 5.33936 14.0881C5.62067 13.8068 6.0022 13.6488 6.40002 13.6488ZM18.4 13.6488C18.7978 13.6488 19.1794 13.8068 19.4607 14.0881C19.742 14.3694 19.9 14.751 19.9 15.1488C19.9 15.5466 19.742 15.9282 19.4607 16.2095C19.1794 16.4908 18.7978 16.6488 18.4 16.6488C18.0022 16.6488 17.6207 16.4908 17.3394 16.2095C17.0581 15.9282 16.9 15.5466 16.9 15.1488C16.9 14.751 17.0581 14.3694 17.3394 14.0881C17.6207 13.8068 18.0022 13.6488 18.4 13.6488Z" fill="#DCDCDC"/>
    </g>
</svg>
