<svg width="24" height="25" viewBox="0 0 24 25" fill="none"
    xmlns="http://www.w3.org/2000/svg">
    <g id="mdi:car-suv">
        <path id="Vector" d="M3 6.1488H16L19 10.1488H21C22.11 10.1488 23 11.0388 23 12.1488V15.1488H21C21 15.9445 20.6839 16.7075 20.1213 17.2701C19.5587 17.8327 18.7956 18.1488 18 18.1488C17.2044 18.1488 16.4413 17.8327 15.8787 17.2701C15.3161 16.7075 15 15.9445 15 15.1488H9C9 15.9445 8.68393 16.7075 8.12132 17.2701C7.55871 17.8327 6.79565 18.1488 6 18.1488C5.20435 18.1488 4.44129 17.8327 3.87868 17.2701C3.31607 16.7075 3 15.9445 3 15.1488H1V8.1488C1 7.0388 1.89 6.1488 3 6.1488ZM2.5 7.6488V10.1488H10.5V7.6488H2.5ZM12 7.6488V10.1488H17.14L15.25 7.6488H12ZM6 13.6488C5.60218 13.6488 5.22064 13.8068 4.93934 14.0881C4.65804 14.3694 4.5 14.751 4.5 15.1488C4.5 15.5466 4.65804 15.9282 4.93934 16.2095C5.22064 16.4908 5.60218 16.6488 6 16.6488C6.39782 16.6488 6.77936 16.4908 7.06066 16.2095C7.34196 15.9282 7.5 15.5466 7.5 15.1488C7.5 14.751 7.34196 14.3694 7.06066 14.0881C6.77936 13.8068 6.39782 13.6488 6 13.6488ZM18 13.6488C17.6022 13.6488 17.2206 13.8068 16.9393 14.0881C16.658 14.3694 16.5 14.751 16.5 15.1488C16.5 15.5466 16.658 15.9282 16.9393 16.2095C17.2206 16.4908 17.6022 16.6488 18 16.6488C18.3978 16.6488 18.7794 16.4908 19.0607 16.2095C19.342 15.9282 19.5 15.5466 19.5 15.1488C19.5 14.751 19.342 14.3694 19.0607 14.0881C18.7794 13.8068 18.3978 13.6488 18 13.6488Z" fill="#DCDCDC"/>
    </g>
</svg>
