<svg width="25" height="25" viewBox="0 0 25 25" fill="none" xmlns="http://www.w3.org/2000/svg">
<g id="mdi:bus">
<path id="Vector" d="M18.6 11.1488H6.59998V6.1488H18.6M17.1 17.1488C16.7022 17.1488 16.3206 16.9908 16.0393 16.7095C15.758 16.4282 15.6 16.0466 15.6 15.6488C15.6 15.251 15.758 14.8694 16.0393 14.5881C16.3206 14.3068 16.7022 14.1488 17.1 14.1488C17.4978 14.1488 17.8793 14.3068 18.1606 14.5881C18.4419 14.8694 18.6 15.251 18.6 15.6488C18.6 16.0466 18.4419 16.4282 18.1606 16.7095C17.8793 16.9908 17.4978 17.1488 17.1 17.1488ZM8.09998 17.1488C7.70215 17.1488 7.32062 16.9908 7.03932 16.7095C6.75801 16.4282 6.59998 16.0466 6.59998 15.6488C6.59998 15.251 6.75801 14.8694 7.03932 14.5881C7.32062 14.3068 7.70215 14.1488 8.09998 14.1488C8.4978 14.1488 8.87933 14.3068 9.16064 14.5881C9.44194 14.8694 9.59998 15.251 9.59998 15.6488C9.59998 16.0466 9.44194 16.4282 9.16064 16.7095C8.87933 16.9908 8.4978 17.1488 8.09998 17.1488ZM4.59998 16.1488C4.59998 17.0288 4.98998 17.8188 5.59998 18.3688V20.1488C5.59998 20.414 5.70533 20.6684 5.89287 20.8559C6.08041 21.0434 6.33476 21.1488 6.59998 21.1488H7.59998C7.86519 21.1488 8.11955 21.0434 8.30708 20.8559C8.49462 20.6684 8.59998 20.414 8.59998 20.1488V19.1488H16.6V20.1488C16.6 20.414 16.7053 20.6684 16.8929 20.8559C17.0804 21.0434 17.3348 21.1488 17.6 21.1488H18.6C18.8652 21.1488 19.1195 21.0434 19.3071 20.8559C19.4946 20.6684 19.6 20.414 19.6 20.1488V18.3688C20.21 17.8188 20.6 17.0288 20.6 16.1488V6.1488C20.6 2.6488 17.02 2.1488 12.6 2.1488C8.17998 2.1488 4.59998 2.6488 4.59998 6.1488V16.1488Z" fill="#DCDCDC"/>
</g>
</svg>
